<svg width="118" height="118" viewBox="0 0 118 118" fill="none" xmlns="http://www.w3.org/2000/svg">
<path d="M103.704 92.6941L11.3245 81.1273C8.6405 80.7913 6.73729 78.343 7.07331 75.6588L13.6025 23.5101C13.9385 20.8261 16.3868 18.9226 19.0711 19.2587L111.451 30.8254C114.135 31.1615 116.038 33.61 115.702 36.294L109.173 88.4426C108.837 91.1267 106.389 93.0301 103.704 92.6941Z" fill="#3F5EAB"/>
<path d="M100.291 98.7798H7.18949C4.48447 98.7798 2.29156 96.5867 2.29156 93.8819V41.3258C2.29156 38.6208 4.48447 36.4281 7.18949 36.4281H100.291C102.996 36.4281 105.188 38.621 105.188 41.3258V93.8819C105.188 96.5867 102.996 98.7798 100.291 98.7798Z" fill="url(#paint0_linear_0_133)"/>
<path d="M39.7335 83.0842C42.6994 83.0842 42.7045 78.4749 39.7335 78.4749H12.1155C9.14962 78.4749 9.14478 83.0842 12.1155 83.0842H39.7335ZM47.7232 83.0842H53.3909C56.3568 83.0842 56.3618 78.4749 53.3909 78.4749H47.7232C44.7573 78.4749 44.7524 83.0842 47.7232 83.0842Z" fill="white"/>
<path d="M74.9682 90.2078C79.7228 90.2078 83.5772 86.3534 83.5772 81.5989C83.5772 76.8443 79.7228 72.9899 74.9682 72.9899C70.2137 72.9899 66.3593 76.8443 66.3593 81.5989C66.3593 86.3534 70.2137 90.2078 74.9682 90.2078Z" fill="url(#paint1_linear_0_133)"/>
<path d="M88.8731 90.2078C93.6277 90.2078 97.4821 86.3534 97.4821 81.5989C97.4821 76.8443 93.6277 72.9899 88.8731 72.9899C84.1186 72.9899 80.2642 76.8443 80.2642 81.5989C80.2642 86.3534 84.1186 90.2078 88.8731 90.2078Z" fill="#3F5EAB"/>
<path d="M2.29158 57.4349C5.71266 57.4349 104.685 57.578 105.015 57.4349C105.056 57.4171 105.141 57.4349 105.189 57.4349C105.231 57.4349 105.232 51.6732 105.189 51.6732C101.768 51.6732 2.79492 51.53 2.46489 51.6732C2.42387 51.6909 2.33882 51.6732 2.29158 51.6732C2.2494 51.6732 2.24779 57.4349 2.29158 57.4349Z" fill="white"/>
<defs>
<linearGradient id="paint0_linear_0_133" x1="13.8625" y1="107.481" x2="93.6178" y2="27.7263" gradientUnits="userSpaceOnUse">
<stop stop-color="#00FFFF"/>
<stop offset="1" stop-color="#FF7BAC"/>
</linearGradient>
<linearGradient id="paint1_linear_0_133" x1="66.3593" y1="81.5989" x2="83.5772" y2="81.5989" gradientUnits="userSpaceOnUse">
<stop stop-color="#B3B3B3"/>
<stop offset="0.016" stop-color="#B7B7B7"/>
<stop offset="0.152" stop-color="#D1D1D1"/>
<stop offset="0.302" stop-color="#E5E5E5"/>
<stop offset="0.47" stop-color="#F4F4F4"/>
<stop offset="0.672" stop-color="#FCFCFC"/>
<stop offset="1" stop-color="white"/>
</linearGradient>
</defs>
</svg>
